Coordinates
version=1
nRows=14
nColumns=24
inDegrees=yes

Units are S.I. units (second, meters, Newtons, ...)
Angles are in degrees.

endheader
time	pelvis_tilt	pelvis_list	pelvis_rotation	pelvis_tx	pelvis_ty	pelvis_tz	hip_flexion_r	hip_adduction_r	hip_rotation_r	knee_angle_r	ankle_angle_r	subtalar_angle_r	mtp_angle_r	hip_flexion_l	hip_adduction_l	hip_rotation_l	knee_angle_l	ankle_angle_l	subtalar_angle_l	mtp_angle_l	lumbar_extension	lumbar_bending	lumbar_rotation
      1.68500000	     18.60690008	     -8.15661608	      5.84768284	      0.29270093	      0.97457284	      0.01952254	    -16.84214275	     13.24848702	    -11.71203135	     -3.96232518	      5.95498283	      5.54543056	      8.43261233	     -6.46278024	    -15.06331195	     -5.48649594	    -62.51038149	      0.95087136	     -4.69675988	     31.58621189	    -25.48166772	      9.68451044	     -6.80380746
      1.69000000	     18.51437341	     -7.99144040	      5.85199741	      0.29778586	      0.97476666	      0.01958050	    -17.23090730	     13.12916449	    -11.39788266	     -3.71670325	      6.17789729	      5.29775963	      8.48332633	     -5.58675744	    -14.81284620	     -5.39678543	    -62.46884555	      1.82683438	     -4.66658109	     31.25971119	    -25.42120746	      9.50046502	     -6.84293051
      1.69500000	     18.43543637	     -7.87082607	      5.81783418	      0.30282287	      0.97494551	      0.01964606	    -17.62813409	     13.03786556	    -11.01824017	     -3.47585429	      6.27245869	      5.02586110	      8.61099211	     -4.75437411	    -14.59151874	     -5.35998444	    -62.36148856	      2.85329029	     -4.54545239	     30.02826121	    -25.38492869	      9.35227314	     -6.77049480
      1.70000000	     18.38432190	     -7.73102063	      5.80876837	      0.30786710	      0.97512480	      0.01966595	    -18.05115037	     12.92979338	    -10.71603688	     -3.24946689	      6.46594641	      4.86974841	      8.62872912	     -3.97295959	    -14.34707871	     -5.30507189	    -62.14812718	      3.71747342	     -4.39199747	     30.07244940	    -25.37623834	      9.19437172	     -6.74404118
      1.70500000	     18.32651750	     -7.62651065	      5.76098988	      0.31294221	      0.97525548	      0.01978001	    -18.49635171	     12.85322101	    -10.29261879	     -2.96488646	      6.59086938	      4.58456633	      8.62436064	     -3.21881640	    -14.14746594	     -5.32613830	    -61.85665237	      4.58558862	     -4.14596751	     30.02048973	    -25.35823463	      9.05179160	     -6.67119186
      1.71000000	     18.28937926	     -7.51015893	      5.69798194	      0.31799832	      0.97539364	      0.01988517	    -18.96089328	     12.75442528	     -9.88279848	     -2.69232116	      6.71049849	      4.33526348	      8.62146391	     -2.51840417	    -13.92235035	     -5.36776820	    -61.47608638	      5.43307342	     -3.88577860	     29.92717785	    -25.36760680	      8.89345878	     -6.57769739
      1.71500000	     18.26460834	     -7.40483248	      5.62501049	      0.32307316	      0.97552571	      0.01999928	    -19.45381286	     12.66230019	     -9.44326979	     -2.39183557	      6.81264426	      4.07930194	      8.61473405	     -1.86820048	    -13.70640819	     -5.43542525	    -60.99505983	      6.26312375	     -3.55519206	     29.79686606	    -25.38847991	      8.74289128	     -6.47297671
      1.72000000	     18.25088107	     -7.33746232	      5.51986352	      0.32814356	      0.97562030	      0.02019081	    -19.97180087	     12.60179894	     -8.94213350	     -2.05950250	      6.81756625	      3.74291716	      8.59514893	     -1.25797311	    -13.54196310	     -5.57323271	    -60.44908048	      7.13119897	     -3.19766057	     29.42351747	    -25.42590033	      8.61396291	     -6.31416233
      1.72500000	     18.24069838	     -7.21314697	      5.42410961	      0.33324787	      0.97572065	      0.02035113	    -20.49057680	     12.47970210	     -8.54240988	     -1.74939983	      6.96005398	      3.56316309	      8.60319475	     -0.69047621	    -13.30605140	     -5.70160948	    -59.78845340	      7.88972504	     -2.76291729	     29.25053595	    -25.46142331	      8.42897342	     -6.22302226
      1.73000000	     18.25635709	     -7.09170664	      5.31497654	      0.33825199	      0.97582011	      0.02049098	    -21.03079655	     12.35051496	     -8.10547995	     -1.44102321	      7.05718714	      3.34814270	      8.59974313	     -0.17538680	    -13.05568715	     -5.82558556	    -59.04242965	      8.61324043	     -2.33122263	     29.10538425	    -25.54034962	      8.24581363	     -6.07068069
      1.73500000	     18.27542892	     -6.98235063	      5.18763785	      0.34329960	      0.97589255	      0.02069000	    -21.58728755	     12.22937923	     -7.66585801	     -1.11042877	      7.12881698	      3.12640553	      8.59196994	      0.29806754	    -12.83134963	     -6.00812049	    -58.20863120	      9.30417780	     -1.89871606	     28.93937980	    -25.61849732	      8.06260030	     -5.91527860
      1.74000000	     18.30679344	     -6.88501450	      5.03621476	      0.34841033	      0.97595080	      0.02093615	    -22.17676789	     12.11283729	     -7.20848963	     -0.74738746	      7.14917132	      2.87313553	      8.58019350	      0.71328795	    -12.63584339	     -6.26962329	    -57.28483082	      9.98136998	     -1.47207090	     28.65730369	    -25.70299198	      7.88112960	     -5.75024499
      1.74500000	     18.33208137	     -6.76129421	      4.87835504	      0.35340954	      0.97600184	      0.02113864	    -22.73760702	     11.95900549	     -6.77147437	     -0.41500733	      7.15197547	      2.59698352	      8.58694419	      1.10716489	    -12.37965769	     -6.49134104	    -56.26227877	     10.61064887	     -1.06548716	     28.11135165	    -25.79671811	      7.67180006	     -5.54838117
      1.75000000	     18.37617830	     -6.63582650	      4.73060630	      0.35850096	      0.97601109	      0.02136324	    -23.32345098	     11.80649439	     -6.42641296	     -0.08675311	      7.27737761	      2.51026954	      8.60747649	      1.44960660	    -12.14935697	     -6.76702294	    -55.16214733	     11.14522658	     -0.60874290	     27.94589042	    -25.89712080	      7.46061930	     -5.41781935
